# xmcd
#
# Track frame offsets: 
#        150
#        9810
#        23120
#        36950
#        60490
#        81687
#        94185
#        105585
#        120092
#        133890
#        160267
#
# Disc length: 2244 seconds
#
# Revision: 1
# Processed by: cddbd v1.5.2PL0 Copyright (c) Steve Scherf et al.
# Submitted via: ExactAudioCopy v0.99pb2
#
DISCID=8208c20b
DTITLE=Waylon Jennings - Waylon Jennings Laidies Love Outlaws
DYEAR=1997
DGENRE=Country
TTITLE0=Theme From The Dukes Of Hazzard
TTITLE1=Amanda
TTITLE2=A Good Hearted Woman
TTITLE3=Waltz Across Texas
TTITLE4=I Ain't Livin' Long Like This
TTITLE5=We Had It All
TTITLE6=Laidies Love Outlaws
TTITLE7=Folsom Prison Blues
TTITLE8=The Year That Clayton Delaney Died
TTITLE9=He Went To Paris
TTITLE10=Data
EXTD=
EXTT0=
EXTT1=
EXTT2=
EXTT3=
EXTT4=
EXTT5=
EXTT6=
EXTT7=
EXTT8=
EXTT9=
EXTT10=
PLAYORDER=
